<svg width="500" height="500" viewBox="0 0 500 500" fill="none" xmlns="http://www.w3.org/2000/svg">
<path fill-rule="evenodd" clip-rule="evenodd" d="M60 0C26.8629 0 0 26.8629 0 60V440C0 473.137 26.8629 500 60 500H375.447L375 499.553L500 374.553V60C500 26.8629 473.137 0 440 0H60Z" fill="#5194FF"/>
<rect x="80" y="80" width="340" height="340" rx="170" fill="white" fill-opacity="0.3"/>
<path fill-rule="evenodd" clip-rule="evenodd" d="M374.999 500L374.999 415C374.999 392.908 392.908 375 414.999 375L500 375L374.999 500Z" fill="#3D7FE0"/>
<path d="M214.879 315.781C188.512 315.781 169.791 301.631 169 280.801H188.688C189.391 291.963 200.465 299.082 214.703 299.082C230.084 299.082 241.246 290.732 241.246 278.34C241.246 265.771 230.787 256.807 212.594 256.719H201.695V240.898H212.594C227.096 240.986 237.203 232.9 237.203 220.684C237.203 209.082 228.502 201.172 215.055 201.172C202.311 201.172 190.885 208.291 190.445 219.805H171.812C172.34 199.062 191.5 185 215.23 185C240.279 185 256.012 200.82 255.836 219.629C256.012 234.131 247.047 244.502 233.336 247.93V248.809C250.738 251.27 260.846 262.959 260.758 279.043C260.846 300.225 241.246 315.781 214.879 315.781Z" fill="white"/>
<path d="M330.367 186.758V314.023H310.855V206.094H310.152L279.742 225.957V207.5L311.383 186.758H330.367Z" fill="white"/>
</svg>
