<svg width="460" height="460" viewBox="0 0 460 460" fill="none" xmlns="http://www.w3.org/2000/svg">
<mask id="path-1-inside-1_494_102" fill="white">
<path fill-rule="evenodd" clip-rule="evenodd" d="M60 28.5156C26.8629 28.5156 0 55.3785 0 88.5156V400C0 433.137 26.8629 460 60 460H345.411L345 459.59L460 344.833V88.5156C460 55.3785 433.137 28.5156 400 28.5156H60Z"/>
</mask>
<path fill-rule="evenodd" clip-rule="evenodd" d="M60 28.5156C26.8629 28.5156 0 55.3785 0 88.5156V400C0 433.137 26.8629 460 60 460H345.411L345 459.59L460 344.833V88.5156C460 55.3785 433.137 28.5156 400 28.5156H60Z" fill="white"/>
<path d="M345.411 460V476H384.097L356.713 448.674L345.411 460ZM345 459.59L333.698 448.264L322.348 459.59L333.699 470.916L345 459.59ZM460 344.833L471.302 356.159L476 351.471V344.833H460ZM16 88.5156C16 64.2151 35.6995 44.5156 60 44.5156V12.5156C18.0264 12.5156 -16 46.542 -16 88.5156H16ZM16 400V88.5156H-16V400H16ZM60 444C35.6995 444 16 424.3 16 400H-16C-16 441.974 18.0264 476 60 476V444ZM345.411 444H60V476H345.411V444ZM356.713 448.674L356.302 448.264L333.699 470.916L334.11 471.326L356.713 448.674ZM356.302 470.916L471.302 356.159L448.698 333.508L333.698 448.264L356.302 470.916ZM444 88.5156V344.833H476V88.5156H444ZM400 44.5156C424.301 44.5156 444 64.2151 444 88.5156H476C476 46.542 441.974 12.5156 400 12.5156V44.5156ZM60 44.5156H400V12.5156H60V44.5156Z" fill="#5194FF" mask="url(#path-1-inside-1_494_102)"/>
<path fill-rule="evenodd" clip-rule="evenodd" d="M344.999 460L344.999 385.243C344.999 363.152 362.908 345.243 384.999 345.243L460 345.243L344.999 460Z" fill="#5194FF"/>
<rect x="110.4" y="157.043" width="239.2" height="238.693" rx="119.347" fill="#5194FF"/>
<path d="M205.291 322.571C186.741 322.571 173.571 312.637 173.014 298.013H186.865C187.36 305.85 195.151 310.847 205.168 310.847C215.989 310.847 223.841 304.986 223.841 296.286C223.841 287.462 216.483 281.168 203.684 281.107H196.016V270H203.684C213.886 270.062 220.997 264.385 220.997 255.809C220.997 247.664 214.876 242.111 205.415 242.111C196.449 242.111 188.411 247.109 188.102 255.192H174.993C175.364 240.63 188.844 230.757 205.539 230.757C223.161 230.757 234.229 241.864 234.106 255.068C234.229 265.249 227.922 272.53 218.276 274.936V275.553C230.519 277.281 237.63 285.488 237.568 296.779C237.63 311.65 223.841 322.571 205.291 322.571Z" fill="white"/>
<path d="M286.541 231.991V321.337H272.814V245.566H272.319L250.925 259.511V246.553L273.185 231.991H286.541Z" fill="white"/>
<path d="M0 88.5156C0 55.3785 26.8629 28.5156 60 28.5156H400C433.137 28.5156 460 55.3785 460 88.5156V120.321H0V88.5156Z" fill="#5194FF"/>
<rect x="5.65385" y="9.79277" width="39.1922" height="75.8183" rx="19.5961" transform="matrix(0.966063 0.258308 -0.259331 0.965788 54.1428 -1.12541)" fill="white" stroke="#5194FF" stroke-width="16"/>
<rect x="5.65385" y="9.79277" width="39.1922" height="75.8183" rx="19.5961" transform="matrix(0.966063 0.258308 -0.259331 0.965788 163.731 -1.12541)" fill="white" stroke="#5194FF" stroke-width="16"/>
<rect x="5.65385" y="9.79277" width="39.1922" height="75.8183" rx="19.5961" transform="matrix(0.966063 0.258308 -0.259331 0.965788 273.211 -1.12541)" fill="white" stroke="#5194FF" stroke-width="16"/>
<rect x="5.65385" y="9.79277" width="39.1922" height="75.8183" rx="19.5961" transform="matrix(0.966063 0.258308 -0.259331 0.965788 382.691 -1.12541)" fill="white" stroke="#5194FF" stroke-width="16"/>
</svg>
