<svg width="2175" height="460" viewBox="0 0 2175 460" fill="none" xmlns="http://www.w3.org/2000/svg">
<path d="M829.28 337.2C819.68 346.16 805.067 350.64 785.44 350.64H620V300.08H643.68V138.16H620V87.6H804.96V138.16H783.2V300.08H787.04C796.213 300.08 803.893 299.44 810.08 298.16C816.267 296.667 822.667 294 829.28 290.16V80.56H886.88V186.48H919.52V237.04H886.88V382.96H829.28V337.2ZM727.52 300.08V138.16H699.36V300.08H727.52Z" fill="#FF6E40"/>
<path d="M945.27 87.6H1113.59V138.16H1002.87V193.52H1110.39V243.44H1002.87V300.08H1110.39C1119.56 300.08 1127.24 299.44 1133.43 298.16C1139.62 296.667 1146.02 294 1152.63 290.16V80.56H1210.23V382.96H1152.63V337.2C1143.03 346.16 1128.42 350.64 1108.79 350.64H945.27V87.6Z" fill="#FF6E40"/>
<path d="M1263.82 286.64H1311.18V254.32H1239.18V210.48H1424.14C1433.31 210.48 1440.99 209.84 1447.18 208.56C1453.37 207.067 1459.77 204.4 1466.38 200.56V80.56H1523.98V315.76H1466.38V305.52H1392.78V265.84H1466.38V240.88C1456.78 249.84 1442.17 254.32 1422.54 254.32H1368.78V307.12H1320.78V331.12H1527.18V379.76H1263.82V286.64ZM1248.46 140.08C1248.46 122.373 1254.33 108.507 1266.06 98.48C1277.79 88.24 1293.9 83.12 1314.38 83.12H1372.94C1393.42 83.12 1409.53 88.24 1421.26 98.48C1432.99 108.507 1438.86 122.373 1438.86 140.08C1438.86 157.787 1432.99 171.76 1421.26 182C1409.53 192.027 1393.42 197.04 1372.94 197.04H1314.38C1293.9 197.04 1277.79 192.027 1266.06 182C1254.33 171.76 1248.46 157.787 1248.46 140.08ZM1306.06 140.08C1306.06 143.707 1307.23 146.693 1309.58 149.04C1312.14 151.173 1315.45 152.24 1319.5 152.24H1367.82C1371.87 152.24 1375.07 151.173 1377.42 149.04C1379.98 146.693 1381.26 143.707 1381.26 140.08C1381.26 136.453 1379.98 133.573 1377.42 131.44C1375.07 129.093 1371.87 127.92 1367.82 127.92H1319.5C1315.45 127.92 1312.14 129.093 1309.58 131.44C1307.23 133.573 1306.06 136.453 1306.06 140.08Z" fill="#FF6E40"/>
<path d="M1757.09 242.16C1760.08 231.28 1762.64 219.333 1764.77 206.32C1767.12 193.093 1768.29 182 1768.29 173.04V134.96H1579.49V84.4H1825.89V176.56C1825.89 188.293 1824.4 201.627 1821.41 216.56C1818.64 231.493 1815.54 243.653 1812.13 253.04L1757.09 242.16ZM1559.33 262H1848.61V312.56H1732.77V382.96H1675.17V312.56H1559.33V262Z" fill="#FF6E40"/>
<path d="M1898.68 273.84H2141.88V382.96H1898.68V273.84ZM1870.52 124.4H2065.08V164.72H1870.52V124.4ZM1882.04 216.56C1882.04 202.267 1886.73 191.067 1896.12 182.96C1905.72 174.853 1918.95 170.8 1935.8 170.8H2003C2019.85 170.8 2032.97 174.853 2042.36 182.96C2051.96 191.067 2056.76 202.267 2056.76 216.56C2056.76 231.493 2051.96 243.227 2042.36 251.76C2032.97 260.08 2019.85 264.24 2003 264.24H1935.8C1918.95 264.24 1905.72 260.08 1896.12 251.76C1886.73 243.227 1882.04 231.493 1882.04 216.56ZM1890.68 78H2044.92V117.68H1890.68V78ZM1940.28 216.56C1940.28 219.12 1941.13 221.147 1942.84 222.64C1944.76 224.133 1947.32 224.88 1950.52 224.88H1988.28C1991.48 224.88 1993.93 224.133 1995.64 222.64C1997.56 221.147 1998.52 219.12 1998.52 216.56C1998.52 214 1997.56 211.973 1995.64 210.48C1993.93 208.987 1991.48 208.24 1988.28 208.24H1950.52C1947.32 208.24 1944.76 208.987 1942.84 210.48C1941.13 211.973 1940.28 214 1940.28 216.56ZM2084.28 336.24V320.56H1956.28V336.24H2084.28ZM2084.28 80.56H2141.88V146.48H2174.52V195.76H2141.88V264.56H2084.28V80.56Z" fill="#FF6E40"/>
<mask id="path-2-inside-1_503_131" fill="white">
<path fill-rule="evenodd" clip-rule="evenodd" d="M60 28.9697C26.8629 28.9697 0 55.8327 0 88.9698V400C0 433.137 26.8629 460 60 460H345.411L345 459.591L460 344.955V88.9697C460 55.8326 433.137 28.9697 400 28.9697H60Z"/>
</mask>
<path fill-rule="evenodd" clip-rule="evenodd" d="M60 28.9697C26.8629 28.9697 0 55.8327 0 88.9698V400C0 433.137 26.8629 460 60 460H345.411L345 459.591L460 344.955V88.9697C460 55.8326 433.137 28.9697 400 28.9697H60Z" fill="#FF6E40"/>
<path d="M345.411 460V476H384.126L356.707 448.668L345.411 460ZM345 459.591L333.704 448.259L322.336 459.591L333.704 470.922L345 459.591ZM460 344.955L471.296 356.286L476 351.597V344.955H460ZM16 88.9698C16 64.6692 35.6995 44.9697 60 44.9697V12.9697C18.0263 12.9697 -16 46.9961 -16 88.9698H16ZM16 400V88.9698H-16V400H16ZM60 444C35.6995 444 16 424.301 16 400H-16C-16 441.974 18.0264 476 60 476V444ZM345.411 444H60V476H345.411V444ZM356.707 448.668L356.296 448.259L333.704 470.922L334.115 471.332L356.707 448.668ZM356.296 470.922L471.296 356.286L448.704 333.623L333.704 448.259L356.296 470.922ZM444 88.9697V344.955H476V88.9697H444ZM400 44.9697C424.301 44.9697 444 64.6692 444 88.9697H476C476 46.9961 441.974 12.9697 400 12.9697V44.9697ZM60 44.9697H400V12.9697H60V44.9697Z" fill="#FF6E40" mask="url(#path-2-inside-1_503_131)"/>
<path fill-rule="evenodd" clip-rule="evenodd" d="M344.999 459.517L344.999 384.88C344.999 362.789 362.908 344.88 384.999 344.88L460 344.88L344.999 459.517Z" fill="#FF3D00"/>
<path d="M189.451 319.663C158.732 319.663 136.922 303.343 136 279.317H158.937C159.756 292.192 172.658 300.403 189.246 300.403C207.166 300.403 220.17 290.772 220.17 276.479C220.17 261.983 207.985 251.643 186.789 251.542H174.092V233.295H186.789C203.684 233.396 215.46 224.07 215.46 209.979C215.46 196.598 205.322 187.475 189.656 187.475C174.808 187.475 161.497 195.686 160.985 208.965H139.277C139.891 185.042 162.214 168.822 189.861 168.822C219.044 168.822 237.373 187.069 237.168 208.763C237.373 225.489 226.928 237.451 210.954 241.404V242.418C231.229 245.257 243.004 258.739 242.902 277.29C243.004 301.721 220.17 319.663 189.451 319.663Z" fill="white"/>
<path d="M324 170.85V317.636H301.268V193.151H300.449L265.02 216.062V194.773L301.882 170.85H324Z" fill="white"/>
<rect x="4.23927" y="7.34264" width="43.1883" height="79.7282" rx="21.5942" transform="matrix(0.96613 0.258054 -0.259586 0.96572 53.4608 -0.842253)" fill="white" stroke="#FF6E40" stroke-width="12"/>
<rect x="4.23927" y="7.34264" width="43.1883" height="79.7282" rx="21.5942" transform="matrix(0.96613 0.258054 -0.259586 0.96572 163.05 -0.842253)" fill="white" stroke="#FF6E40" stroke-width="12"/>
<rect x="4.23927" y="7.34264" width="43.1883" height="79.7282" rx="21.5942" transform="matrix(0.96613 0.258054 -0.259586 0.96572 272.53 -0.842253)" fill="white" stroke="#FF6E40" stroke-width="12"/>
<rect x="4.23927" y="7.34264" width="43.1883" height="79.7282" rx="21.5942" transform="matrix(0.96613 0.258054 -0.259586 0.96572 382.01 -0.842253)" fill="white" stroke="#FF6E40" stroke-width="12"/>
</svg>
