<svg width="2195" height="532" viewBox="0 0 2195 532" fill="none" xmlns="http://www.w3.org/2000/svg">
<path d="M849.28 389.2C839.68 398.16 825.067 402.64 805.44 402.64H640V352.08H663.68V190.16H640V139.6H824.96V190.16H803.2V352.08H807.04C816.213 352.08 823.893 351.44 830.08 350.16C836.267 348.667 842.667 346 849.28 342.16V132.56H906.88V238.48H939.52V289.04H906.88V434.96H849.28V389.2ZM747.52 352.08V190.16H719.36V352.08H747.52Z" fill="#5194FF"/>
<path d="M965.27 139.6H1133.59V190.16H1022.87V245.52H1130.39V295.44H1022.87V352.08H1130.39C1139.56 352.08 1147.24 351.44 1153.43 350.16C1159.62 348.667 1166.02 346 1172.63 342.16V132.56H1230.23V434.96H1172.63V389.2C1163.03 398.16 1148.42 402.64 1128.79 402.64H965.27V139.6Z" fill="#5194FF"/>
<path d="M1283.82 338.64H1331.18V306.32H1259.18V262.48H1444.14C1453.31 262.48 1460.99 261.84 1467.18 260.56C1473.37 259.067 1479.77 256.4 1486.38 252.56V132.56H1543.98V367.76H1486.38V357.52H1412.78V317.84H1486.38V292.88C1476.78 301.84 1462.17 306.32 1442.54 306.32H1388.78V359.12H1340.78V383.12H1547.18V431.76H1283.82V338.64ZM1268.46 192.08C1268.46 174.373 1274.33 160.507 1286.06 150.48C1297.79 140.24 1313.9 135.12 1334.38 135.12H1392.94C1413.42 135.12 1429.53 140.24 1441.26 150.48C1452.99 160.507 1458.86 174.373 1458.86 192.08C1458.86 209.787 1452.99 223.76 1441.26 234C1429.53 244.027 1413.42 249.04 1392.94 249.04H1334.38C1313.9 249.04 1297.79 244.027 1286.06 234C1274.33 223.76 1268.46 209.787 1268.46 192.08ZM1326.06 192.08C1326.06 195.707 1327.23 198.693 1329.58 201.04C1332.14 203.173 1335.45 204.24 1339.5 204.24H1387.82C1391.87 204.24 1395.07 203.173 1397.42 201.04C1399.98 198.693 1401.26 195.707 1401.26 192.08C1401.26 188.453 1399.98 185.573 1397.42 183.44C1395.07 181.093 1391.87 179.92 1387.82 179.92H1339.5C1335.45 179.92 1332.14 181.093 1329.58 183.44C1327.23 185.573 1326.06 188.453 1326.06 192.08Z" fill="#5194FF"/>
<path d="M1777.09 294.16C1780.08 283.28 1782.64 271.333 1784.77 258.32C1787.12 245.093 1788.29 234 1788.29 225.04V186.96H1599.49V136.4H1845.89V228.56C1845.89 240.293 1844.4 253.627 1841.41 268.56C1838.64 283.493 1835.54 295.653 1832.13 305.04L1777.09 294.16ZM1579.33 314H1868.61V364.56H1752.77V434.96H1695.17V364.56H1579.33V314Z" fill="#5194FF"/>
<path d="M1918.68 325.84H2161.88V434.96H1918.68V325.84ZM1890.52 176.4H2085.08V216.72H1890.52V176.4ZM1902.04 268.56C1902.04 254.267 1906.73 243.067 1916.12 234.96C1925.72 226.853 1938.95 222.8 1955.8 222.8H2023C2039.85 222.8 2052.97 226.853 2062.36 234.96C2071.96 243.067 2076.76 254.267 2076.76 268.56C2076.76 283.493 2071.96 295.227 2062.36 303.76C2052.97 312.08 2039.85 316.24 2023 316.24H1955.8C1938.95 316.24 1925.72 312.08 1916.12 303.76C1906.73 295.227 1902.04 283.493 1902.04 268.56ZM1910.68 130H2064.92V169.68H1910.68V130ZM1960.28 268.56C1960.28 271.12 1961.13 273.147 1962.84 274.64C1964.76 276.133 1967.32 276.88 1970.52 276.88H2008.28C2011.48 276.88 2013.93 276.133 2015.64 274.64C2017.56 273.147 2018.52 271.12 2018.52 268.56C2018.52 266 2017.56 263.973 2015.64 262.48C2013.93 260.987 2011.48 260.24 2008.28 260.24H1970.52C1967.32 260.24 1964.76 260.987 1962.84 262.48C1961.13 263.973 1960.28 266 1960.28 268.56ZM2104.28 388.24V372.56H1976.28V388.24H2104.28ZM2104.28 132.56H2161.88V198.48H2194.52V247.76H2161.88V316.56H2104.28V132.56Z" fill="#5194FF"/>
<mask id="path-2-inside-1_493_100" fill="white">
<path fill-rule="evenodd" clip-rule="evenodd" d="M60 32C26.8629 32 0 58.8629 0 92V472C0 505.137 26.8629 532 60 532H375.447L375 531.553L500 406.553V92C500 58.8629 473.137 32 440 32H60Z"/>
</mask>
<path fill-rule="evenodd" clip-rule="evenodd" d="M60 32C26.8629 32 0 58.8629 0 92V472C0 505.137 26.8629 532 60 532H375.447L375 531.553L500 406.553V92C500 58.8629 473.137 32 440 32H60Z" fill="white"/>
<path d="M375.447 532V548H414.074L386.761 520.686L375.447 532ZM375 531.553L363.686 520.24L352.373 531.553L363.686 542.867L375 531.553ZM500 406.553L511.314 417.867L516 413.181V406.553H500ZM16 92C16 67.6995 35.6995 48 60 48V16C18.0264 16 -16 50.0264 -16 92H16ZM16 472V92H-16V472H16ZM60 516C35.6995 516 16 496.301 16 472H-16C-16 513.974 18.0264 548 60 548V516ZM375.447 516H60V548H375.447V516ZM386.761 520.686L386.314 520.24L363.686 542.867L364.133 543.314L386.761 520.686ZM386.314 542.867L511.314 417.867L488.686 395.24L363.686 520.24L386.314 542.867ZM484 92V406.553H516V92H484ZM440 48C464.301 48 484 67.6995 484 92H516C516 50.0264 481.974 16 440 16V48ZM60 48H440V16H60V48Z" fill="#5194FF" mask="url(#path-2-inside-1_493_100)"/>
<path fill-rule="evenodd" clip-rule="evenodd" d="M374.999 532L374.999 447C374.999 424.908 392.908 407 414.999 407L500 407L374.999 532Z" fill="#5194FF"/>
<rect x="120" y="182" width="260" height="260" rx="130" fill="#5194FF"/>
<path d="M223.143 362.304C202.98 362.304 188.664 351.483 188.059 335.554H203.114C203.652 344.09 212.12 349.534 223.008 349.534C234.77 349.534 243.306 343.149 243.306 333.672C243.306 324.061 235.308 317.205 221.395 317.138H213.061V305.04H221.395C232.485 305.108 240.214 298.924 240.214 289.582C240.214 280.71 233.56 274.661 223.277 274.661C213.532 274.661 204.794 280.105 204.458 288.91H190.21C190.613 273.048 205.265 262.294 223.412 262.294C242.567 262.294 254.597 274.392 254.463 288.775C254.597 299.865 247.742 307.796 237.257 310.417V311.089C250.565 312.971 258.294 321.91 258.227 334.21C258.294 350.407 243.306 362.304 223.143 362.304Z" fill="white"/>
<path d="M311.457 263.639V360.959H296.537V278.425H295.999L272.744 293.615V279.5L296.94 263.639H311.457Z" fill="white"/>
<path d="M0 92C0 58.8629 26.8629 32 60 32H440C473.137 32 500 58.8629 500 92V132H0V92Z" fill="#5194FF"/>
<rect x="61.5387" y="10.7369" width="44" height="84" rx="22" transform="rotate(15 61.5387 10.7369)" fill="white" stroke="#5194FF" stroke-width="16"/>
<rect x="180.657" y="10.7369" width="44" height="84" rx="22" transform="rotate(15 180.657 10.7369)" fill="white" stroke="#5194FF" stroke-width="16"/>
<rect x="299.657" y="10.7369" width="44" height="84" rx="22" transform="rotate(15 299.657 10.7369)" fill="white" stroke="#5194FF" stroke-width="16"/>
<rect x="418.657" y="10.7369" width="44" height="84" rx="22" transform="rotate(15 418.657 10.7369)" fill="white" stroke="#5194FF" stroke-width="16"/>
</svg>
