<svg width="460" height="460" viewBox="0 0 460 460" fill="none" xmlns="http://www.w3.org/2000/svg">
<mask id="path-1-inside-1_503_128" fill="white">
<path fill-rule="evenodd" clip-rule="evenodd" d="M60 28.9697C26.8629 28.9697 0 55.8327 0 88.9698V400C0 433.137 26.8629 460 60 460H345.411L345 459.591L460 344.955V88.9697C460 55.8326 433.137 28.9697 400 28.9697H60Z"/>
</mask>
<path fill-rule="evenodd" clip-rule="evenodd" d="M60 28.9697C26.8629 28.9697 0 55.8327 0 88.9698V400C0 433.137 26.8629 460 60 460H345.411L345 459.591L460 344.955V88.9697C460 55.8326 433.137 28.9697 400 28.9697H60Z" fill="#FF6E40"/>
<path d="M345.411 460V476H384.126L356.707 448.668L345.411 460ZM345 459.591L333.704 448.259L322.336 459.591L333.704 470.922L345 459.591ZM460 344.955L471.296 356.286L476 351.597V344.955H460ZM16 88.9698C16 64.6692 35.6995 44.9697 60 44.9697V12.9697C18.0263 12.9697 -16 46.9961 -16 88.9698H16ZM16 400V88.9698H-16V400H16ZM60 444C35.6995 444 16 424.301 16 400H-16C-16 441.974 18.0264 476 60 476V444ZM345.411 444H60V476H345.411V444ZM356.707 448.668L356.296 448.259L333.704 470.922L334.115 471.332L356.707 448.668ZM356.296 470.922L471.296 356.286L448.704 333.623L333.704 448.259L356.296 470.922ZM444 88.9697V344.955H476V88.9697H444ZM400 44.9697C424.301 44.9697 444 64.6692 444 88.9697H476C476 46.9961 441.974 12.9697 400 12.9697V44.9697ZM60 44.9697H400V12.9697H60V44.9697Z" fill="#FF6E40" mask="url(#path-1-inside-1_503_128)"/>
<path fill-rule="evenodd" clip-rule="evenodd" d="M344.999 459.517L344.999 384.88C344.999 362.789 362.908 344.88 384.999 344.88L460 344.88L344.999 459.517Z" fill="#FF3D00"/>
<path d="M189.451 319.663C158.732 319.663 136.922 303.343 136 279.317H158.937C159.756 292.192 172.658 300.403 189.246 300.403C207.166 300.403 220.17 290.772 220.17 276.479C220.17 261.983 207.985 251.643 186.789 251.542H174.092V233.295H186.789C203.684 233.396 215.46 224.07 215.46 209.979C215.46 196.598 205.322 187.475 189.656 187.475C174.808 187.475 161.497 195.686 160.985 208.965H139.277C139.891 185.042 162.214 168.822 189.861 168.822C219.044 168.822 237.373 187.069 237.168 208.763C237.373 225.489 226.928 237.451 210.954 241.404V242.418C231.229 245.257 243.004 258.739 242.902 277.29C243.004 301.721 220.17 319.663 189.451 319.663Z" fill="white"/>
<path d="M324 170.85V317.636H301.268V193.151H300.449L265.02 216.062V194.773L301.882 170.85H324Z" fill="white"/>
<rect x="4.23927" y="7.34264" width="43.1883" height="79.7282" rx="21.5942" transform="matrix(0.96613 0.258054 -0.259586 0.96572 53.4608 -0.842253)" fill="white" stroke="#FF6E40" stroke-width="12"/>
<rect x="4.23927" y="7.34264" width="43.1883" height="79.7282" rx="21.5942" transform="matrix(0.96613 0.258054 -0.259586 0.96572 163.05 -0.842253)" fill="white" stroke="#FF6E40" stroke-width="12"/>
<rect x="4.23927" y="7.34264" width="43.1883" height="79.7282" rx="21.5942" transform="matrix(0.96613 0.258054 -0.259586 0.96572 272.53 -0.842253)" fill="white" stroke="#FF6E40" stroke-width="12"/>
<rect x="4.23927" y="7.34264" width="43.1883" height="79.7282" rx="21.5942" transform="matrix(0.96613 0.258054 -0.259586 0.96572 382.01 -0.842253)" fill="white" stroke="#FF6E40" stroke-width="12"/>
</svg>
