<svg width="2175" height="460" viewBox="0 0 2175 460" fill="none" xmlns="http://www.w3.org/2000/svg">
<path d="M829.28 337.2C819.68 346.16 805.067 350.64 785.44 350.64H620V300.08H643.68V138.16H620V87.6H804.96V138.16H783.2V300.08H787.04C796.213 300.08 803.893 299.44 810.08 298.16C816.267 296.667 822.667 294 829.28 290.16V80.56H886.88V186.48H919.52V237.04H886.88V382.96H829.28V337.2ZM727.52 300.08V138.16H699.36V300.08H727.52Z" fill="#5194FF"/>
<path d="M945.27 87.6H1113.59V138.16H1002.87V193.52H1110.39V243.44H1002.87V300.08H1110.39C1119.56 300.08 1127.24 299.44 1133.43 298.16C1139.62 296.667 1146.02 294 1152.63 290.16V80.56H1210.23V382.96H1152.63V337.2C1143.03 346.16 1128.42 350.64 1108.79 350.64H945.27V87.6Z" fill="#5194FF"/>
<path d="M1263.82 286.64H1311.18V254.32H1239.18V210.48H1424.14C1433.31 210.48 1440.99 209.84 1447.18 208.56C1453.37 207.067 1459.77 204.4 1466.38 200.56V80.56H1523.98V315.76H1466.38V305.52H1392.78V265.84H1466.38V240.88C1456.78 249.84 1442.17 254.32 1422.54 254.32H1368.78V307.12H1320.78V331.12H1527.18V379.76H1263.82V286.64ZM1248.46 140.08C1248.46 122.373 1254.33 108.507 1266.06 98.48C1277.79 88.24 1293.9 83.12 1314.38 83.12H1372.94C1393.42 83.12 1409.53 88.24 1421.26 98.48C1432.99 108.507 1438.86 122.373 1438.86 140.08C1438.86 157.787 1432.99 171.76 1421.26 182C1409.53 192.027 1393.42 197.04 1372.94 197.04H1314.38C1293.9 197.04 1277.79 192.027 1266.06 182C1254.33 171.76 1248.46 157.787 1248.46 140.08ZM1306.06 140.08C1306.06 143.707 1307.23 146.693 1309.58 149.04C1312.14 151.173 1315.45 152.24 1319.5 152.24H1367.82C1371.87 152.24 1375.07 151.173 1377.42 149.04C1379.98 146.693 1381.26 143.707 1381.26 140.08C1381.26 136.453 1379.98 133.573 1377.42 131.44C1375.07 129.093 1371.87 127.92 1367.82 127.92H1319.5C1315.45 127.92 1312.14 129.093 1309.58 131.44C1307.23 133.573 1306.06 136.453 1306.06 140.08Z" fill="#5194FF"/>
<path d="M1757.09 242.16C1760.08 231.28 1762.64 219.333 1764.77 206.32C1767.12 193.093 1768.29 182 1768.29 173.04V134.96H1579.49V84.4H1825.89V176.56C1825.89 188.293 1824.4 201.627 1821.41 216.56C1818.64 231.493 1815.54 243.653 1812.13 253.04L1757.09 242.16ZM1559.33 262H1848.61V312.56H1732.77V382.96H1675.17V312.56H1559.33V262Z" fill="#5194FF"/>
<path d="M1898.68 273.84H2141.88V382.96H1898.68V273.84ZM1870.52 124.4H2065.08V164.72H1870.52V124.4ZM1882.04 216.56C1882.04 202.267 1886.73 191.067 1896.12 182.96C1905.72 174.853 1918.95 170.8 1935.8 170.8H2003C2019.85 170.8 2032.97 174.853 2042.36 182.96C2051.96 191.067 2056.76 202.267 2056.76 216.56C2056.76 231.493 2051.96 243.227 2042.36 251.76C2032.97 260.08 2019.85 264.24 2003 264.24H1935.8C1918.95 264.24 1905.72 260.08 1896.12 251.76C1886.73 243.227 1882.04 231.493 1882.04 216.56ZM1890.68 78H2044.92V117.68H1890.68V78ZM1940.28 216.56C1940.28 219.12 1941.13 221.147 1942.84 222.64C1944.76 224.133 1947.32 224.88 1950.52 224.88H1988.28C1991.48 224.88 1993.93 224.133 1995.64 222.64C1997.56 221.147 1998.52 219.12 1998.52 216.56C1998.52 214 1997.56 211.973 1995.64 210.48C1993.93 208.987 1991.48 208.24 1988.28 208.24H1950.52C1947.32 208.24 1944.76 208.987 1942.84 210.48C1941.13 211.973 1940.28 214 1940.28 216.56ZM2084.28 336.24V320.56H1956.28V336.24H2084.28ZM2084.28 80.56H2141.88V146.48H2174.52V195.76H2141.88V264.56H2084.28V80.56Z" fill="#5194FF"/>
<mask id="path-2-inside-1_498_78" fill="white">
<path fill-rule="evenodd" clip-rule="evenodd" d="M60 28.5156C26.8629 28.5156 0 55.3785 0 88.5156V400C0 433.137 26.8629 460 60 460H345.411L345 459.59L460 344.833V88.5156C460 55.3785 433.137 28.5156 400 28.5156H60Z"/>
</mask>
<path fill-rule="evenodd" clip-rule="evenodd" d="M60 28.5156C26.8629 28.5156 0 55.3785 0 88.5156V400C0 433.137 26.8629 460 60 460H345.411L345 459.59L460 344.833V88.5156C460 55.3785 433.137 28.5156 400 28.5156H60Z" fill="white"/>
<path d="M345.411 460V476H384.097L356.713 448.674L345.411 460ZM345 459.59L333.698 448.264L322.348 459.59L333.699 470.916L345 459.59ZM460 344.833L471.302 356.159L476 351.471V344.833H460ZM16 88.5156C16 64.2151 35.6995 44.5156 60 44.5156V12.5156C18.0264 12.5156 -16 46.542 -16 88.5156H16ZM16 400V88.5156H-16V400H16ZM60 444C35.6995 444 16 424.3 16 400H-16C-16 441.974 18.0264 476 60 476V444ZM345.411 444H60V476H345.411V444ZM356.713 448.674L356.302 448.264L333.699 470.916L334.11 471.326L356.713 448.674ZM356.302 470.916L471.302 356.159L448.698 333.508L333.698 448.264L356.302 470.916ZM444 88.5156V344.833H476V88.5156H444ZM400 44.5156C424.301 44.5156 444 64.2151 444 88.5156H476C476 46.542 441.974 12.5156 400 12.5156V44.5156ZM60 44.5156H400V12.5156H60V44.5156Z" fill="#5194FF" mask="url(#path-2-inside-1_498_78)"/>
<path fill-rule="evenodd" clip-rule="evenodd" d="M344.999 460L344.999 385.243C344.999 363.152 362.908 345.243 384.999 345.243L460 345.243L344.999 460Z" fill="#5194FF"/>
<rect x="110.4" y="157.043" width="239.2" height="238.693" rx="119.347" fill="#5194FF"/>
<path d="M205.291 322.571C186.741 322.571 173.571 312.637 173.014 298.013H186.865C187.36 305.85 195.151 310.847 205.168 310.847C215.989 310.847 223.841 304.986 223.841 296.286C223.841 287.462 216.483 281.168 203.684 281.107H196.016V270H203.684C213.886 270.062 220.997 264.385 220.997 255.809C220.997 247.664 214.876 242.111 205.415 242.111C196.449 242.111 188.411 247.109 188.102 255.192H174.993C175.364 240.63 188.844 230.757 205.539 230.757C223.161 230.757 234.229 241.864 234.106 255.068C234.229 265.249 227.922 272.53 218.276 274.936V275.553C230.519 277.281 237.63 285.488 237.568 296.779C237.63 311.65 223.841 322.571 205.291 322.571Z" fill="white"/>
<path d="M286.541 231.991V321.337H272.814V245.566H272.319L250.925 259.511V246.553L273.185 231.991H286.541Z" fill="white"/>
<path d="M0 88.5156C0 55.3785 26.8629 28.5156 60 28.5156H400C433.137 28.5156 460 55.3785 460 88.5156V120.321H0V88.5156Z" fill="#5194FF"/>
<rect x="5.65385" y="9.79277" width="39.1922" height="75.8183" rx="19.5961" transform="matrix(0.966063 0.258308 -0.259331 0.965788 54.1428 -1.12541)" fill="white" stroke="#5194FF" stroke-width="16"/>
<rect x="5.65385" y="9.79277" width="39.1922" height="75.8183" rx="19.5961" transform="matrix(0.966063 0.258308 -0.259331 0.965788 163.731 -1.12541)" fill="white" stroke="#5194FF" stroke-width="16"/>
<rect x="5.65385" y="9.79277" width="39.1922" height="75.8183" rx="19.5961" transform="matrix(0.966063 0.258308 -0.259331 0.965788 273.211 -1.12541)" fill="white" stroke="#5194FF" stroke-width="16"/>
<rect x="5.65385" y="9.79277" width="39.1922" height="75.8183" rx="19.5961" transform="matrix(0.966063 0.258308 -0.259331 0.965788 382.691 -1.12541)" fill="white" stroke="#5194FF" stroke-width="16"/>
</svg>
