<svg width="2195" height="500" viewBox="0 0 2195 500" fill="none" xmlns="http://www.w3.org/2000/svg">
<path d="M849.28 357.2C839.68 366.16 825.067 370.64 805.44 370.64H640V320.08H663.68V158.16H640V107.6H824.96V158.16H803.2V320.08H807.04C816.213 320.08 823.893 319.44 830.08 318.16C836.267 316.667 842.667 314 849.28 310.16V100.56H906.88V206.48H939.52V257.04H906.88V402.96H849.28V357.2ZM747.52 320.08V158.16H719.36V320.08H747.52Z" fill="#5194FF"/>
<path d="M965.27 107.6H1133.59V158.16H1022.87V213.52H1130.39V263.44H1022.87V320.08H1130.39C1139.56 320.08 1147.24 319.44 1153.43 318.16C1159.62 316.667 1166.02 314 1172.63 310.16V100.56H1230.23V402.96H1172.63V357.2C1163.03 366.16 1148.42 370.64 1128.79 370.64H965.27V107.6Z" fill="#5194FF"/>
<path d="M1283.82 306.64H1331.18V274.32H1259.18V230.48H1444.14C1453.31 230.48 1460.99 229.84 1467.18 228.56C1473.37 227.067 1479.77 224.4 1486.38 220.56V100.56H1543.98V335.76H1486.38V325.52H1412.78V285.84H1486.38V260.88C1476.78 269.84 1462.17 274.32 1442.54 274.32H1388.78V327.12H1340.78V351.12H1547.18V399.76H1283.82V306.64ZM1268.46 160.08C1268.46 142.373 1274.33 128.507 1286.06 118.48C1297.79 108.24 1313.9 103.12 1334.38 103.12H1392.94C1413.42 103.12 1429.53 108.24 1441.26 118.48C1452.99 128.507 1458.86 142.373 1458.86 160.08C1458.86 177.787 1452.99 191.76 1441.26 202C1429.53 212.027 1413.42 217.04 1392.94 217.04H1334.38C1313.9 217.04 1297.79 212.027 1286.06 202C1274.33 191.76 1268.46 177.787 1268.46 160.08ZM1326.06 160.08C1326.06 163.707 1327.23 166.693 1329.58 169.04C1332.14 171.173 1335.45 172.24 1339.5 172.24H1387.82C1391.87 172.24 1395.07 171.173 1397.42 169.04C1399.98 166.693 1401.26 163.707 1401.26 160.08C1401.26 156.453 1399.98 153.573 1397.42 151.44C1395.07 149.093 1391.87 147.92 1387.82 147.92H1339.5C1335.45 147.92 1332.14 149.093 1329.58 151.44C1327.23 153.573 1326.06 156.453 1326.06 160.08Z" fill="#5194FF"/>
<path d="M1777.09 262.16C1780.08 251.28 1782.64 239.333 1784.77 226.32C1787.12 213.093 1788.29 202 1788.29 193.04V154.96H1599.49V104.4H1845.89V196.56C1845.89 208.293 1844.4 221.627 1841.41 236.56C1838.64 251.493 1835.54 263.653 1832.13 273.04L1777.09 262.16ZM1579.33 282H1868.61V332.56H1752.77V402.96H1695.17V332.56H1579.33V282Z" fill="#5194FF"/>
<path d="M1918.68 293.84H2161.88V402.96H1918.68V293.84ZM1890.52 144.4H2085.08V184.72H1890.52V144.4ZM1902.04 236.56C1902.04 222.267 1906.73 211.067 1916.12 202.96C1925.72 194.853 1938.95 190.8 1955.8 190.8H2023C2039.85 190.8 2052.97 194.853 2062.36 202.96C2071.96 211.067 2076.76 222.267 2076.76 236.56C2076.76 251.493 2071.96 263.227 2062.36 271.76C2052.97 280.08 2039.85 284.24 2023 284.24H1955.8C1938.95 284.24 1925.72 280.08 1916.12 271.76C1906.73 263.227 1902.04 251.493 1902.04 236.56ZM1910.68 98H2064.92V137.68H1910.68V98ZM1960.28 236.56C1960.28 239.12 1961.13 241.147 1962.84 242.64C1964.76 244.133 1967.32 244.88 1970.52 244.88H2008.28C2011.48 244.88 2013.93 244.133 2015.64 242.64C2017.56 241.147 2018.52 239.12 2018.52 236.56C2018.52 234 2017.56 231.973 2015.64 230.48C2013.93 228.987 2011.48 228.24 2008.28 228.24H1970.52C1967.32 228.24 1964.76 228.987 1962.84 230.48C1961.13 231.973 1960.28 234 1960.28 236.56ZM2104.28 356.24V340.56H1976.28V356.24H2104.28ZM2104.28 100.56H2161.88V166.48H2194.52V215.76H2161.88V284.56H2104.28V100.56Z" fill="#5194FF"/>
<path fill-rule="evenodd" clip-rule="evenodd" d="M60 0C26.8629 0 0 26.8629 0 60V440C0 473.137 26.8629 500 60 500H375.447L375 499.553L500 374.553V60C500 26.8629 473.137 0 440 0H60Z" fill="#5194FF"/>
<rect x="80" y="80" width="340" height="340" rx="170" fill="white" fill-opacity="0.3"/>
<path fill-rule="evenodd" clip-rule="evenodd" d="M374.999 500L374.999 415C374.999 392.908 392.908 375 414.999 375L500 375L374.999 500Z" fill="#3D7FE0"/>
<path d="M214.879 315.781C188.512 315.781 169.791 301.631 169 280.801H188.688C189.391 291.963 200.465 299.082 214.703 299.082C230.084 299.082 241.246 290.732 241.246 278.34C241.246 265.771 230.787 256.807 212.594 256.719H201.695V240.898H212.594C227.096 240.986 237.203 232.9 237.203 220.684C237.203 209.082 228.502 201.172 215.055 201.172C202.311 201.172 190.885 208.291 190.445 219.805H171.812C172.34 199.062 191.5 185 215.23 185C240.279 185 256.012 200.82 255.836 219.629C256.012 234.131 247.047 244.502 233.336 247.93V248.809C250.738 251.27 260.846 262.959 260.758 279.043C260.846 300.225 241.246 315.781 214.879 315.781Z" fill="white"/>
<path d="M330.367 186.758V314.023H310.855V206.094H310.152L279.742 225.957V207.5L311.383 186.758H330.367Z" fill="white"/>
</svg>
